<?xml version="1.0" encoding="iso-8859-1"?>
<!-- Generator: Adobe Illustrator 19.0.0, SVG Export Plug-In . SVG Version: 6.00 Build 0)  -->
<svg version="1.1" id="Capa_1" xmlns="http://www.w3.org/2000/svg" xmlns:xlink="http://www.w3.org/1999/xlink" x="0px" y="0px"
	 viewBox="0 0 496.816 496.816" style="enable-background:new 0 0 496.816 496.816;" xml:space="preserve">
<g>
	<g>
		<path d="M455.696,316.664l2.952-11.848h-10.24c-39.704,0-72-32.304-72-72v-72c0-27.96-8.848-54.52-25.6-76.816l-0.064,0.048
			l11.768-31.376L248.408,0L134.304,52.664l11.8,31.408L146.008,84c-16.752,22.296-25.6,48.856-25.6,76.816v72
			c0,39.696-32.296,72-72,72h-10.24l2.96,11.848c8.264,33.064,34.112,57.872,66.088,65.584c-9.256,8.528-16.352,19.36-20.144,31.688
			l-25.496,82.88h373.656l-25.496-82.872c-3.792-12.328-10.88-23.16-20.144-31.688C421.584,374.536,447.424,349.736,455.696,316.664
			z M248.408,17.632l93.896,43.336l-18.256,48.696c-11.928-5.152-36.352-12.848-75.64-12.848c-39.288,0-63.712,7.696-75.64,12.84
			L154.512,60.96L248.408,17.632z M136.408,160.816c0-20.944,5.712-40.968,16.544-58.536l11.504,30.624l8.344-5.4
			c0.224-0.152,23.304-14.688,75.608-14.688s75.384,14.536,75.56,14.656l8.392,5.592l11.528-30.744
			c10.808,17.56,16.52,37.568,16.52,58.496v48.208c-4.672-3.536-10.056-6.184-16-7.392v-16.816h-32
			c-22.536,0-44.072-10.768-57.6-28.8l-6.4-8.536l-6.4,8.536c-13.528,18.032-35.064,28.8-57.6,28.8h-32v16.808
			c-5.944,1.216-11.328,3.856-16,7.392V160.816z M360.408,240.816c0,10.888-7.328,20-17.28,22.928c0.768-4.88,1.28-9.84,1.28-14.928
			v-30.528C353.696,221.6,360.408,230.4,360.408,240.816z M208.408,348.536v-12.56c12.192,5.616,25.712,8.84,40,8.84
			c14.288,0,27.808-3.224,40-8.84v12.56l-40,26.664L208.408,348.536z M235.856,386.056l-23.112,23.112l-11.56-46.216
			L235.856,386.056z M295.632,362.952l-11.56,46.216l-23.112-23.112L295.632,362.952z M248.408,328.816c-44.112,0-80-35.888-80-80
			v-48h16c24.224,0,47.496-10.176,64-27.616c16.504,17.44,39.776,27.616,64,27.616h16v48
			C328.408,292.928,292.52,328.816,248.408,328.816z M152.408,218.288v30.528c0,5.088,0.512,10.048,1.28,14.928
			c-9.952-2.928-17.28-12.04-17.28-22.928C136.408,230.4,143.12,221.6,152.408,218.288z M58.904,320.192
			c32.128-3.84,58.944-25.08,70.856-53.984c6.84,8.232,16.816,13.64,28.152,14.352c6.568,18.672,18.72,34.688,34.488,46.064v20.416
			l-59.288,19.76c-1.704,0.568-3.32,1.304-4.96,1.992C96.864,368.704,69.416,349.096,58.904,320.192z M394.448,418.648
			l19.128,62.168h-54.112l-7.128-56.992l-15.872,1.984l6.88,55.008H153.472l6.872-55.008l-15.872-1.984l-7.128,56.992H83.232
			l19.136-62.168c5.304-17.248,18.696-30.952,35.816-36.656l47.336-15.776l18.56,74.248l44.328-44.336l44.336,44.336l18.56-74.248
			l47.336,15.776C375.752,387.696,389.144,401.4,394.448,418.648z M368.656,368.808c-1.64-0.688-3.256-1.424-4.96-1.992
			l-59.288-19.768v-20.416c15.768-11.384,27.92-27.4,34.488-46.064c11.336-0.712,21.32-6.12,28.152-14.352
			c11.912,28.896,38.728,50.144,70.856,53.984C427.4,349.096,399.952,368.704,368.656,368.808z"/>
	</g>
</g>
<g>
	<g>
		<polygon points="256.408,48.816 256.408,32.816 240.408,32.816 240.408,48.816 224.408,48.816 224.408,64.816 240.408,64.816 
			240.408,80.816 256.408,80.816 256.408,64.816 272.408,64.816 272.408,48.816 		"/>
	</g>
</g>
<g>
</g>
<g>
</g>
<g>
</g>
<g>
</g>
<g>
</g>
<g>
</g>
<g>
</g>
<g>
</g>
<g>
</g>
<g>
</g>
<g>
</g>
<g>
</g>
<g>
</g>
<g>
</g>
<g>
</g>
</svg>
